<?xml version="1.0" encoding="UTF-8"?>
<svg width="1024" height="256" viewBox="0 0 1024 256" fill="none" xmlns="http://www.w3.org/2000/svg">
  <rect width="1024" height="256" rx="32" fill="#111827"/>
  <g transform="translate(40,28)">
    <svg width="200" height="200" viewBox="0 0 256 256">
      <path d="M128 0c-17.673 0-32 14.327-32 32 0 15.464 11.042 28.334 25.6 31.36V80h12.8V63.36C148.958 60.334 160 47.464 160 32c0-17.673-14.327-32-32-32z" fill="#F59E0B"/>
      <path d="M16 120c24-20 64-40 112-40s88 20 112 40l32 144c2.5 11.3-6 22-17.6 22H33.6C22 286 13.5 275.3 16 264l32-144z" fill="#F3F4F6"/>
      <path d="M96 144c-20 0-36 16-36 36s16 36 36 36 36-16 36-36-16-36-36-36z" fill="#111827"/>
      <path d="M176 144c-20 0-36 16-36 36s16 36 36 36 36-16 36-36-16-36-36-36z" fill="#111827"/>
    </svg>
    <text x="240" y="108" fill="#F3F4F6" font-family="'Inter', system-ui, -apple-system, Segoe UI, Roboto, Ubuntu, Cantarell, 'Helvetica Neue', Arial, 'Noto Sans', 'Apple Color Emoji', 'Segoe UI Emoji'" font-weight="700" font-size="96" letter-spacing="2">BRANDNAME</text>
    <text x="242" y="150" fill="#9CA3AF" font-family="'Inter', system-ui" font-weight="500" font-size="28" letter-spacing="6">CLOTHING STORE</text>
  </g>
</svg>
